<?xml version="1.0" encoding="UTF-8" standalone="no"?>
<svg xmlns="http://www.w3.org/2000/svg" width="32" height="32" viewBox="0 0 32 32">
  <defs>
    <radialGradient id="crystal-gradient" cx="50%" cy="50%" r="50%" fx="50%" fy="50%">
      <stop offset="0%" stop-color="#00ffff" stop-opacity="0.9"/>
      <stop offset="70%" stop-color="#00ffff" stop-opacity="0.5"/>
      <stop offset="100%" stop-color="#00ffff" stop-opacity="0.2"/>
    </radialGradient>
    <filter id="glow">
      <feGaussianBlur stdDeviation="1.5" result="blur"/>
      <feComposite in="SourceGraphic" in2="blur" operator="over"/>
    </filter>
  </defs>
  
  <!-- Crystal Ball -->
  <circle cx="16" cy="16" r="14" fill="url(#crystal-gradient)" filter="url(#glow)"/>
  
  <!-- Inner Glow -->
  <circle cx="12" cy="12" r="6" fill="white" fill-opacity="0.3"/>
  
  <!-- Base -->
  <path d="M10,28 Q16,32 22,28" stroke="#ff00ff" stroke-width="2" fill="none"/>
  
  <!-- Stars -->
  <g fill="#ffffff">
    <polygon points="16,8 17,10 19,10 17.5,12 18,14 16,13 14,14 14.5,12 13,10 15,10" filter="url(#glow)"/>
    <polygon points="22,14 22.5,15 23.5,15 22.75,16 23,17 22,16.5 21,17 21.25,16 20.5,15 21.5,15" filter="url(#glow)"/>
    <polygon points="10,14 10.5,15 11.5,15 10.75,16 11,17 10,16.5 9,17 9.25,16 8.5,15 9.5,15" filter="url(#glow)"/>
  </g>
</svg>